<?xml version="1.0" encoding="utf-8"?>
<!-- Generator: Adobe Illustrator 22.0.1, SVG Export Plug-In . SVG Version: 6.00 Build 0)  -->
<svg version="1.1" id="Layer_1" xmlns="http://www.w3.org/2000/svg" xmlns:xlink="http://www.w3.org/1999/xlink" x="0px" y="0px"
	 viewBox="0 0 32 32" style="enable-background:new 0 0 32 32;" xml:space="preserve">
<style type="text/css">
	.st0{fill:#AAAAAA;}
	.st1{fill:none;stroke:#AAAAAA;stroke-width:1.5;}
</style>
<g transform="translate(1 1)">
	<polygon class="st0" points="22.6,15.4 22.6,13 21.4,13 21.4,15.4 19,15.4 19,16.6 21.4,16.6 21.4,19 22.6,19 22.6,16.6 25,16.6 
		25,15.4 	"/>
	<path class="st0" d="M12,14.4v2.2h3.4c-0.5,1.3-1.8,2.2-3.4,2.2c-2,0-3.6-1.5-3.6-3.3s1.6-3.3,3.6-3.3c0.9,0,1.7,0.3,2.3,0.8
		l1.6-1.7C14.8,10.5,13.4,10,12,10c-3.3,0-6,2.5-6,5.5S8.7,21,12,21s6-2.5,6-5.5v-1.1H12z"/>
	<circle class="st1" cx="15" cy="15" r="15"/>
</g>
</svg>
