<?xml version="1.0" encoding="utf-8"?>
<!-- Generator: Adobe Illustrator 22.0.1, SVG Export Plug-In . SVG Version: 6.00 Build 0)  -->
<svg version="1.1" id="Layer_1" xmlns="http://www.w3.org/2000/svg" xmlns:xlink="http://www.w3.org/1999/xlink" x="0px" y="0px"
	 viewBox="0 0 32 32" style="enable-background:new 0 0 32 32;" xml:space="preserve">
<style type="text/css">
	.st0{fill:#AAAAAA;}
	.st1{fill:none;stroke:#AAAAAA;stroke-width:1.5;}
</style>
<g transform="translate(1 1)">
	<rect x="9" y="13" class="st0" width="3" height="9"/>
	<path class="st0" d="M19.8,13.1C19.8,13.1,19.8,13.1,19.8,13.1c-0.1,0-0.2,0-0.2-0.1c-0.2,0-0.3-0.1-0.5-0.1
		c-1.7,0-2.8,1.2-3.1,1.7V13H13v9h2.9v-4.9c0,0,2.2-3.1,3.1-0.8c0,2,0,5.7,0,5.7H22v-6.1C22,14.6,21.1,13.4,19.8,13.1z"/>
	<circle class="st0" cx="10.5" cy="10.5" r="1.5"/>
	<circle class="st1" cx="15" cy="15" r="15"/>
</g>
</svg>
