<?xml version="1.0" encoding="utf-8"?>
<!-- Generator: Adobe Illustrator 22.0.1, SVG Export Plug-In . SVG Version: 6.00 Build 0)  -->
<svg version="1.1" id="Layer_1" xmlns="http://www.w3.org/2000/svg" xmlns:xlink="http://www.w3.org/1999/xlink" x="0px" y="0px"
	 viewBox="0 0 32 32" style="enable-background:new 0 0 32 32;" xml:space="preserve">
<style type="text/css">
	.st0{fill:#AAAAAA;}
	.st1{fill:none;stroke:#AAAAAA;stroke-width:1.5;}
</style>
<g transform="translate(1 1)">
	<path class="st0" d="M23,11.4c-0.6,0.2-1.2,0.4-1.8,0.5c0.6-0.4,1.1-1,1.4-1.7c-0.6,0.3-1.3,0.6-2,0.7c-0.6-0.6-1.4-1-2.2-1
		c-1.7,0-3.1,1.4-3.1,3c0,0.2,0,0.5,0.1,0.7c-2.6-0.1-4.8-1.3-6.3-3.2c-0.3,0.5-0.4,1-0.4,1.5c0,1,0.5,2,1.4,2.5
		c-0.5,0-1-0.2-1.4-0.4c0,0,0,0,0,0c0,1.5,1.1,2.7,2.5,3c-0.3,0.1-0.5,0.1-0.8,0.1c-0.2,0-0.4,0-0.6-0.1c0.4,1.2,1.5,2.1,2.9,2.1
		c-1,0.8-2.4,1.3-3.8,1.3c-0.3,0-0.5,0-0.7,0c1.4,0.9,3,1.4,4.7,1.4c5.7,0,8.8-4.6,8.8-8.6c0-0.1,0-0.3,0-0.4
		C22.1,12.6,22.6,12,23,11.4z"/>
	<circle class="st1" cx="15" cy="15" r="15"/>
</g>
</svg>
