<?xml version="1.0" encoding="utf-8"?>
<!-- Generator: Adobe Illustrator 22.0.1, SVG Export Plug-In . SVG Version: 6.00 Build 0)  -->
<svg version="1.1" id="Capa_1" xmlns="http://www.w3.org/2000/svg" xmlns:xlink="http://www.w3.org/1999/xlink" x="0px" y="0px"
	 viewBox="0 0 512 512" style="enable-background:new 0 0 512 512;" xml:space="preserve">
<style type="text/css">
	.st0{opacity:0.3;}
	.st1{fill:#FDFDFD;}
</style>
<g class="st0">
	<g>
		<g>
			<path class="st1" d="M256,423.7c-5.3,0-8.8,3.5-8.8,8.8v70.6c0,5.3,3.5,8.8,8.8,8.8s8.8-3.5,8.8-8.8v-70.6
				C264.8,427.3,261.3,423.7,256,423.7z"/>
			<path class="st1" d="M220.7,423.7c-5.3,0-8.8,3.5-8.8,8.8v35.3c0,5.3,3.5,8.8,8.8,8.8s8.8-3.5,8.8-8.8v-35.3
				C229.5,427.3,226,423.7,220.7,423.7z"/>
			<path class="st1" d="M291.3,423.7c-5.3,0-8.8,3.5-8.8,8.8v35.3c0,5.3,3.5,8.8,8.8,8.8s8.8-3.5,8.8-8.8v-35.3
				C300.1,427.3,296.6,423.7,291.3,423.7z"/>
			<path class="st1" d="M256,35.3c-24.7,0-44.1,19.4-44.1,44.1s19.4,44.1,44.1,44.1s44.1-19.4,44.1-44.1S280.7,35.3,256,35.3z
				 M256,105.9c-15,0-26.5-11.5-26.5-26.5S241,53,256,53c15,0,26.5,11.5,26.5,26.5S271,105.9,256,105.9z"/>
			<path class="st1" d="M285.1,179.2l-70.6,70.6c-3.5,3.5-3.5,8.8,0,12.4c1.8,1.8,3.5,2.6,6.2,2.6s4.4-0.9,6.2-2.6l70.6-70.6
				c3.5-3.5,3.5-8.8,0-12.4C294,175.7,288.7,175.7,285.1,179.2z"/>
			<path class="st1" d="M220.7,229.5c2.6,0,4.4-0.9,6.2-2.6l35.3-35.3c3.5-3.5,3.5-8.8,0-12.4s-8.8-3.5-12.4,0l-35.3,35.3
				c-3.5,3.5-3.5,8.8,0,12.4C216.3,228.6,218,229.5,220.7,229.5z"/>
			<path class="st1" d="M285.1,214.5l-35.3,35.3c-3.5,3.5-3.5,8.8,0,12.4c1.8,1.8,4.4,2.6,6.2,2.6s4.4-0.9,6.2-2.6l35.3-35.3
				c3.5-3.5,3.5-8.8,0-12.4C294,211,288.7,211,285.1,214.5z"/>
			<path class="st1" d="M369,335.4h63.6c5.3,0,8.8-3.5,8.8-8.8c0-45-33.5-82.1-77.7-87.4H361L343.4,77.7C338.1,33.5,301,0,256,0
				s-82.1,33.5-87.4,77.7L151,239.2h-2.6c-44.1,5.3-77.7,42.4-77.7,87.4c0,5.3,3.5,8.8,8.8,8.8h62.7c3.5,18.5,19.4,33.5,38.8,35.3
				l23,23c7.9,7.9,19.4,13.2,30.9,13.2h41.5c11.5,0,23-4.4,30.9-13.2l23-23C349.6,369,365.5,354.9,369,335.4z M422.8,317.8h-53
				l-7.1-60.9C394.6,261.3,419.3,286.9,422.8,317.8z M142.1,317.8h-53c3.5-30.9,28.2-56.5,60-60.9L142.1,317.8z M295.7,380.5
				c-5.3,5.3-12.4,7.9-19.4,7.9h-41.5c-7.1,0-14.1-2.6-18.5-7.9l-9.7-9.7h98.9L295.7,380.5z M185.4,353.1
				c-11.5,0-21.2-7.1-24.7-17.7h166c5.3,0,8.8-3.5,8.8-8.8s-3.5-8.8-8.8-8.8H159.8l26.5-237.5c4.4-36.2,33.5-62.7,69.7-62.7
				s65.3,26.5,69.7,62.7l27.4,246.3c0,14.1-12.4,26.5-26.5,26.5H185.4z"/>
			<path class="st1" d="M166.8,459c-4.4,0-7.9-3.5-7.9-7.9v-0.9c0-15-11.5-26.5-26.5-26.5c-4.4,0-9.7,0.9-13.2,3.5
				c-8.8-23-31.8-38.8-57.4-38.8C27.4,388.4,0,415.8,0,450.2S27.4,512,61.8,512h105.9c7.9,0,15-3.5,20.3-9.7
				c5.3-6.2,7.1-14.1,6.2-21.2C192.4,468.7,180.1,459,166.8,459z M174.8,490.8c-1.8,2.6-4.4,3.5-7.1,3.5H61.8
				c-24.7,0-44.1-19.4-44.1-44.1s19.4-44.1,44.1-44.1s44.1,19.4,44.1,44.1c0,5.3,3.5,8.8,8.8,8.8s8.8-3.5,8.8-8.8s3.5-8.8,8.8-8.8
				c5.3,0,8.8,3.5,8.8,8.8s-3.5,8.8-8.8,8.8s-8.8,3.5-8.8,8.8s3.5,8.8,8.8,8.8c7.1,0,12.4-2.6,17.7-6.2c4.4,4.4,10.6,6.2,16.8,6.2
				c4.4,0,8.8,3.5,9.7,7.1C176.6,486.4,176.6,489,174.8,490.8z"/>
			<path class="st1" d="M61.8,423.7c-15,0-26.5,11.5-26.5,26.5c0,5.3,3.5,8.8,8.8,8.8s8.8-3.5,8.8-8.8s3.5-8.8,8.8-8.8
				s8.8-3.5,8.8-8.8C70.6,427.3,67.1,423.7,61.8,423.7z"/>
			<path class="st1" d="M450.2,388.4c-25.6,0-48.6,15.9-57.4,38.8c-3.5-2.6-8.8-3.5-13.2-3.5c-15,0-26.5,11.5-26.5,26.5v0.9
				c0,4.4-3.5,7.9-7.9,7.9c-13.2,0-24.7,9.7-27.4,22.1c-0.9,7.9,0.9,15.9,6.2,21.2s12.4,9.7,20.3,9.7h105.9
				c34.4,0,61.8-27.4,61.8-61.8S484.6,388.4,450.2,388.4z M450.2,494.3H344.3c-2.6,0-5.3-0.9-7.1-3.5c-1.8-1.8-1.8-4.4-1.8-7.1
				c0.9-4.4,5.3-7.1,9.7-7.1c6.2,0,12.4-2.6,16.8-6.2c4.4,4.4,10.6,6.2,17.7,6.2c5.3,0,8.8-3.5,8.8-8.8s-3.5-8.8-8.8-8.8
				s-8.8-3.5-8.8-8.8s3.5-8.8,8.8-8.8s8.8,3.5,8.8,8.8s3.5,8.8,8.8,8.8s8.8-3.5,8.8-8.8c0-24.7,19.4-44.1,44.1-44.1
				s44.1,19.4,44.1,44.1S474.9,494.3,450.2,494.3z"/>
			<path class="st1" d="M467.9,441.4c-5.3,0-8.8,3.5-8.8,8.8s-3.5,8.8-8.8,8.8h-17.7c-5.3,0-8.8,3.5-8.8,8.8s3.5,8.8,8.8,8.8h17.7
				c15,0,26.5-11.5,26.5-26.5C476.7,444.9,473.2,441.4,467.9,441.4z"/>
		</g>
	</g>
</g>
</svg>
