<svg xmlns="http://www.w3.org/2000/svg" width="556" height="389" viewBox="0 0 556 389">
  <g fill="none" fill-rule="evenodd" transform="translate(-214)">
    <g transform="translate(216.715)">
      <ellipse cx="108.357" cy="142.131" fill="#C9AD74" stroke="#2F2F2F" stroke-width="4.8" rx="108.357" ry="108.5"/>
      <path stroke="#2F2F2F" stroke-linecap="round" stroke-linejoin="round" stroke-width="5.6" d="M16.2824658 196.98155L36.496714 196.98155M26.6783649 186.571956L46.892613 186.571956M196.211488 134.523985L215.626052 134.523985M166.534306 216.799815L166.934148 216.399446M66.5737382 53.449262L66.9735804 53.048893"/>
      <polygon fill="#2F2F2F" points="153.69 78.573 124.429 77.863 119.176 81.838 122.154 83.901 158.042 83.099 156.308 80.882"/>
      <polygon fill="#0B4F6C" points="164.287 12.812 138.345 13.253 138.345 61.005 158.221 60.012 159.601 64.86 194.383 64.86 195.123 62.307 185.773 43.053 195.123 22.227 194.383 19.141 171.205 19.141 167.813 14.566"/>
      <g transform="translate(117.554)">
        <path fill="#2F2F2F" fill-rule="nonzero" d="M70.3643985,43.1708576 C70.203045,42.731878 70.203045,42.2927326 70.3643985,41.853753 L80.2042237,23.9999823 C81.0108087,22.6828778 80.8494551,21.0731754 80.0428702,19.7560709 C79.0749316,18.2925845 77.4619444,17.5610071 75.8487744,17.5610071 L54.7174903,17.5610071 C53.9109053,14.1952207 50.6847481,11.7073933 46.8133594,11.7073933 L22.6169062,11.7073933 L22.6169062,8.48782288 C24.5526005,7.9024615 25.8430634,6.29275915 25.8430634,4.39029323 C25.8430634,1.90246592 23.7460155,0 21.0037362,0 C18.2614569,0 16.164409,1.90246592 16.164409,4.39029323 C16.164409,6.29275915 17.4548719,7.9024615 19.3905662,8.48782288 L19.3905662,13.1707139 L19.3905662,60.0001215 L19.3905662,76.0976423 L8.09910735,76.0976423 C3.58248724,76.0976423 0.0336229356,79.3172128 0.0336229356,83.4147424 C0.0336229356,84.2928674 0.678854379,84.8782288 1.64679291,84.8782288 L40.361045,84.8782288 C41.3289835,84.8782288 41.974215,84.2928674 41.974215,83.4147424 C41.974215,79.3172128 38.4253507,76.0976423 33.9087306,76.0976423 L22.6169062,76.0976423 L22.6169062,61.4634421 L38.9092286,61.4634421 C39.7158136,64.8292286 42.9419708,67.3170559 46.8133594,67.3170559 L75.8489571,67.3170559 C77.4621271,67.3170559 79.0751144,66.5853127 80.0430529,65.2682082 C80.8496379,63.9511036 81.0109914,62.3414013 80.2044064,61.0242967 L70.3643985,43.1708576 Z M33.9085478,79.024615 C36.0055957,79.024615 37.7799365,80.1953378 38.4251679,81.9514219 L3.58230451,81.9514219 C4.22753595,80.1953378 6.00187674,79.024615 8.09892461,79.024615 L33.9085478,79.024615 Z M21.0037362,5.85361379 C20.0357977,5.85361379 19.3905662,5.26825241 19.3905662,4.39012745 C19.3905662,3.51200249 20.0357977,2.92664112 21.0037362,2.92664112 C21.9716748,2.92664112 22.6169062,3.51200249 22.6169062,4.39012745 C22.6169062,5.26825241 21.9716748,5.85361379 21.0037362,5.85361379 Z M22.6169062,58.536801 L22.6169062,49.7560487 L27.4562334,49.7560487 C28.4241719,49.7560487 29.0694034,49.1706874 29.0694034,48.2925624 C29.0694034,47.4144374 28.4241719,46.8290761 27.4562334,46.8290761 L22.6169062,46.8290761 L22.6169062,43.9022692 L33.9085478,43.9022692 C34.8764864,43.9022692 35.5217178,43.3169078 35.5217178,42.4387828 C35.5217178,41.5606579 34.8764864,40.9752965 33.9085478,40.9752965 L22.6169062,40.9752965 L22.6169062,38.0484896 L27.4562334,38.0484896 C28.4241719,38.0484896 29.0694034,37.4631282 29.0694034,36.5850033 C29.0694034,35.7068783 28.4241719,35.1215169 27.4562334,35.1215169 L22.6169062,35.1215169 L22.6169062,14.6342002 L46.8133594,14.6342002 C49.5556388,14.6342002 51.6526866,16.5366662 51.6526866,19.0244935 L51.6526866,54.1465077 C51.6526866,56.634335 49.5556388,58.536801 46.8133594,58.536801 L22.6169062,58.536801 Z M77.13942,63.8050534 C77.13942,63.9514352 76.6555421,64.3904148 75.8489571,64.3904148 L46.8133594,64.3904148 C44.7163116,64.3904148 42.9419708,63.219692 42.2967393,61.4636079 L46.8133594,61.4636079 C51.3299795,61.4636079 54.8788438,58.2440374 54.8788438,54.1465077 L54.8788438,38.0488212 L59.718171,38.0488212 C60.6861096,38.0488212 61.331341,37.4634598 61.331341,36.5853348 C61.331341,35.7072099 60.6861096,35.1218485 59.718171,35.1218485 L54.8788438,35.1218485 L54.8788438,32.1950416 L66.1704855,32.1950416 C67.138424,32.1950416 67.7836555,31.6096802 67.7836555,30.7315553 C67.7836555,29.8534303 67.138424,29.2680689 66.1704855,29.2680689 L54.8788438,29.2680689 L54.8788438,26.341262 L59.718171,26.341262 C60.6861096,26.341262 61.331341,25.7559007 61.331341,24.8777757 C61.331341,23.9996507 60.6861096,23.4142894 59.718171,23.4142894 L54.8788438,23.4142894 L54.8788438,20.4874825 L75.8489571,20.4874825 C76.6555421,20.4874825 77.13942,20.9264621 77.13942,21.2192256 C77.3007736,21.3656074 77.6232979,21.9509688 77.13942,22.682712 L67.2995948,40.5364827 C66.6543634,41.7072054 66.6543634,43.1706918 67.2995948,44.4876305 L77.13942,62.3414013 C77.4621271,63.0733102 77.13942,63.5122898 77.13942,63.8050534 Z M52.487214,14.4577927 L22.7179976,14.4577927 L52.487214,14.4577927 Z"/>
        <polygon fill="#FDFDFD" points="31.875 22.003 36.441 22.003 36.441 46.957 43.945 46.957 43.945 51.116 31.875 51.116"/>
        <path stroke="#2F2F2F" stroke-linecap="round" stroke-linejoin="round" stroke-width="3.2" d="M21.5914826,42.4391144 L33.1869085,42.4391144"/>
      </g>
    </g>
    <path fill="#2F2F2F" d="M405.96,332.302583 L371.88,332.302583 L371.88,299.182583 L295.32,299.182583 L295.32,272.302583 L358.92,172.222583 L405.96,172.222583 L405.96,269.182583 L426.6,269.182583 L426.6,299.182583 L405.96,299.182583 L405.96,332.302583 Z M371.88,269.182583 L371.88,202.462583 L328.68,269.182583 L371.88,269.182583 Z M507,335.182583 C461.16,335.182583 440.76,293.662583 440.76,252.382583 C440.76,211.102583 461.16,169.822583 507,169.822583 C552.6,169.822583 573.24,211.102583 573.24,252.382583 C573.24,293.662583 552.6,335.182583 507,335.182583 Z M507,304.942583 C529.8,304.942583 538.44,281.902583 538.44,252.382583 C538.44,222.862583 529.8,200.062583 507,200.062583 C483.96,200.062583 475.32,222.862583 475.32,252.382583 C475.32,281.902583 483.96,304.942583 507,304.942583 Z M698.04,332.302583 L663.96,332.302583 L663.96,299.182583 L587.4,299.182583 L587.4,272.302583 L651,172.222583 L698.04,172.222583 L698.04,269.182583 L718.68,269.182583 L718.68,299.182583 L698.04,299.182583 L698.04,332.302583 Z M663.96,269.182583 L663.96,202.462583 L620.76,269.182583 L663.96,269.182583 Z"/>
    <g fill-rule="nonzero" transform="rotate(-21 1131.521 -1669.378)">
      <path fill="#C9AD74" d="M60.8372425,68.3638108 L72.7588646,68.3638108 C73.7524113,68.3638108 74.4147132,67.7034129 74.4147132,66.7127226 C74.4147132,58.2925093 68.1227512,51.3584251 59.8438834,50.3677347 L59.3472039,50.3677347 L56.0355067,20.1543913 C55.0421476,11.8993242 48.0878837,5.62545079 39.6433935,5.62545079 C31.1989033,5.62545079 24.2446394,11.8993242 23.2512803,20.1543913 L19.9397707,50.3679217 L19.4430912,50.3679217 C11.1642234,51.3586121 4.87226134,58.2926963 4.87226134,66.7129096 C4.87226134,67.7036 5.53456326,68.3639979 6.52810993,68.3639979 L18.2841097,68.3639979 C18.9464116,71.8311335 21.926864,74.6378713 25.5694308,74.9679767 L29.8744871,79.2606565 C31.3647133,80.7465985 33.5172414,81.7371018 35.6697695,81.7371018 L43.4519578,81.7371018 C45.6044859,81.7371018 47.757014,80.9115577 49.2472403,79.2606565 L53.5522965,74.9679767 C57.1944882,74.6376842 60.1749406,71.9960927 60.8372425,68.3638108 Z" transform="rotate(3 39.643 43.681)"/>
      <path fill="#FDFDFD" stroke="#2F2F2F" stroke-width="3.266" d="M38.384858 89.6826568C36.9453715 89.6826568 35.9858044 90.6435207 35.9858044 92.0849525L35.9858044 111.302501C35.9858044 112.743933 36.9453715 113.704797 38.384858 113.704797 39.8243446 113.704797 40.7839117 112.743933 40.7839117 111.302501L40.7839117 92.0849525C40.7839117 90.6435207 39.8243446 89.6826568 38.384858 89.6826568zM28.7886435 89.6826568C27.349157 89.6826568 26.3895899 90.6435243 26.3895899 92.0849616L26.3895899 101.693636C26.3895899 103.135073 27.349157 104.095941 28.7886435 104.095941 30.2281301 104.095941 31.1876972 103.135073 31.1876972 101.693636L31.1876972 92.0849616C31.1874254 90.6435243 30.2278583 89.6826568 28.7886435 89.6826568zM47.9810726 89.6826568C46.541586 89.6826568 45.5820189 90.6435243 45.5820189 92.0849616L45.5820189 101.693636C45.5820189 103.135073 46.541586 104.095941 47.9810726 104.095941 49.4205591 104.095941 50.3801262 103.135073 50.3801262 101.693636L50.3801262 92.0849616C50.3801262 90.6435243 49.4205591 89.6826568 47.9810726 89.6826568z"/>
      <path fill="#FFF" d="M39.6434873,9.80397691 C34.707945,9.80397691 30.829919,13.6871116 30.829919,18.6291557 C30.829919,23.5711999 34.707945,27.4543346 39.6434873,27.4543346 C44.5790296,27.4543346 48.4570555,23.5711999 48.4570555,18.6291557 C48.4570555,13.6871116 44.5790296,9.80397691 39.6434873,9.80397691 Z"/>
      <path fill="#2F2F2F" d="M39.6434873 9.80397691C34.707945 9.80397691 30.829919 13.6871116 30.829919 18.6291557 30.829919 23.5711999 34.707945 27.4543346 39.6434873 27.4543346 44.5790296 27.4543346 48.4570555 23.5711999 48.4570555 18.6291557 48.4570555 13.6871116 44.5790296 9.80397691 39.6434873 9.80397691zM39.6434873 23.924303C36.6468581 23.924303 34.3553064 21.6297325 34.3553064 18.6291557 34.3553064 15.6285789 36.6468581 13.3342084 39.6434873 13.3342084 42.6401165 13.3342084 44.9316682 15.6287789 44.9316682 18.6293557 44.9316682 21.6299325 42.6401165 23.924303 39.6434873 23.924303zM45.4605592 38.8017989L31.3587301 52.9220851C30.6536486 53.6280894 30.6536486 54.6871958 31.3587301 55.3932001 31.7113707 55.7463022 32.0638116 55.9226534 32.5925728 55.9226534 33.1213339 55.9226534 33.4739745 55.7461023 33.8264154 55.3932001L47.9282444 41.272914C48.6333259 40.5669097 48.6333259 39.5078032 47.9282444 38.8017989 47.2233627 38.0957946 46.1656406 38.0957946 45.4605592 38.8017989zM32.6306765 49.0902568C33.1708068 49.0902568 33.5310297 48.9099073 33.8910486 48.5494124L41.0934665 41.3374724C41.8137083 40.6162783 41.8137083 39.5343852 41.0934665 38.8131912 40.3732247 38.0919972 39.29276 38.0919972 38.5725183 38.8131912L31.3701004 46.0251313C30.6498586 46.7463253 30.6498586 47.8282184 31.3701004 48.5494124 31.7303232 48.9099073 32.0903421 49.0902568 32.6306765 49.0902568zM45.9646894 45.6455877L38.7621356 52.8575278C38.0418802 53.5787218 38.0418802 54.6606149 38.7621356 55.3818089 39.1223652 55.742508 39.6625058 55.9226534 40.0225315 55.9226534 40.3825572 55.9226534 40.9229017 55.7423038 41.2829274 55.3818089L48.4854813 48.1698689C49.2057367 47.4486749 49.2057367 46.3667817 48.4854813 45.6455877 47.7654299 44.9243937 46.6849448 44.9243937 45.9646894 45.6455877z"/>
      <path fill="#2F2F2F" d="M62.8023123,69.9850369 L75.6693733,69.9850369 C76.7417128,69.9850369 77.4565382,69.2736451 77.4565382,68.2064567 C77.4565382,59.1360605 70.665595,51.6665476 61.7301754,50.5993592 L61.1941069,50.5993592 L57.619777,18.0530345 C56.5476401,9.1605366 49.0418713,2.40221402 39.9276947,2.40221402 C30.8135181,2.40221402 23.3077494,9.1605366 22.2356124,18.0530345 L18.661485,50.5995607 L18.1254165,50.5995607 C9.18999686,51.6667491 2.39905363,59.136262 2.39905363,68.2066582 C2.39905363,69.2738466 3.1138791,69.9852384 4.18621854,69.9852384 L16.8745225,69.9852384 C17.589348,73.7200956 20.8061639,76.743561 24.7376028,77.0991561 L29.3840696,81.7233034 C30.9924775,83.3239852 33.3157109,84.3909722 35.6389443,84.3909722 L44.0382955,84.3909722 C46.3615289,84.3909722 48.6847623,83.5016821 50.2931702,81.7233034 L54.939637,77.0991561 C58.870671,76.7433595 62.0874869,73.8977924 62.8023123,69.9850369 Z M73.7034514,66.428078 L62.9808669,66.428078 L61.5512159,54.1565196 C67.9848476,55.0458097 72.988626,60.2034504 73.7034514,66.428078 Z M16.8743201,66.428078 L6.15193798,66.428078 C6.86676346,60.2032489 11.8705418,55.0456082 18.3041735,54.1565196 L16.8743201,66.428078 Z M47.9695319,79.0554331 C46.8971925,80.1226215 45.4675415,80.656115 44.0378906,80.656115 L35.6385394,80.656115 C34.2088885,80.656115 32.7792375,80.1226215 31.8856551,79.0554331 L29.9199356,77.0991561 L49.9352514,77.0991561 L47.9695319,79.0554331 Z M25.6309828,73.5419958 C23.3077494,73.5419958 21.3420299,72.1192122 20.6272045,69.9850369 L54.2244066,69.9850369 C55.2967461,69.9850369 56.0115716,69.2736451 56.0115716,68.2064567 C56.0115716,67.1392683 55.2967461,66.4278766 54.2244066,66.4278766 L20.4484475,66.4278766 L25.8097398,18.5863265 C26.7033222,11.2945105 32.600683,5.95897142 39.9276947,5.95897142 C47.2547064,5.95897142 53.1520672,11.2945105 54.0456497,18.5863265 L59.5856989,68.2064567 C59.5856989,71.0520238 57.0837085,73.5419958 54.2244066,73.5419958 L25.6309828,73.5419958 Z" transform="rotate(3 39.928 43.397)"/>
    </g>
    <ellipse cx="517.796" cy="86.88" fill="#C9AD74" stroke="#2F2F2F" stroke-width="2.4" rx="10.796" ry="10.81"/>
    <ellipse cx="755.702" cy="245.827" fill="#C9AD74" stroke="#2F2F2F" stroke-width="2.4" rx="4.798" ry="4.804"/>
    <ellipse cx="275.891" cy="261.041" fill="#C9AD74" stroke="#2F2F2F" stroke-width="2.4" rx="4.798" ry="4.804"/>
    <ellipse cx="240.705" cy="329.904" fill="#C9AD74" stroke="#2F2F2F" stroke-width="2.4" rx="7.197" ry="7.207"/>
  </g>
</svg>
