<?xml version="1.0" encoding="utf-8"?>
<!-- Generator: Adobe Illustrator 22.0.1, SVG Export Plug-In . SVG Version: 6.00 Build 0)  -->
<svg version="1.1" id="Layer_1" xmlns="http://www.w3.org/2000/svg" xmlns:xlink="http://www.w3.org/1999/xlink" x="0px" y="0px"
	 viewBox="0 0 78 85" style="enable-background:new 0 0 78 85;" xml:space="preserve">
<style type="text/css">
	.st0{fill:#2F2F2F;}
</style>
<g>
	<path class="st0" d="M70.2,29.5h-10V28c0-2.5-1.9-4.4-4.3-4.4H4.5c-2.4,0-4.3,1.9-4.3,4.4v25.4c0,16.7,13,30.6,28.9,31.2
		c0.4,0,0.7,0,1.1,0c7.9,0,15.1-3,20.9-8.6c4.1-4.1,7-9.1,8.3-14.6h10.9c4,0,7.1-3.2,7.1-7.3V36.7C77.3,32.7,74.2,29.5,70.2,29.5z
		 M57.3,54.1c0,7.5-3,14.6-8.3,19.9c-5.3,5.2-12.4,8-19.9,7.7C14.8,81.1,3.1,68.5,3.1,53.4V28c0-0.9,0.6-1.5,1.4-1.5h51.4
		c0.9,0,1.4,0.6,1.4,1.5V54.1z M60.2,38.2h7.1c0.9,0,1.4,0.6,1.4,1.5v11.6c0,0.9-0.6,1.5-1.4,1.5h-7.1V38.2z M74.5,54.1
		c0,2.5-1.9,4.4-4.3,4.4H59.9c0.1-1,0.3-1.9,0.3-2.9h7.1c2.4,0,4.3-1.9,4.3-4.4V39.6c0-2.5-1.9-4.4-4.3-4.4h-7.1v-2.9h10
		c2.4,0,4.3,1.9,4.3,4.4V54.1z"/>
	<path class="st0" d="M30,76.1c-11.9,0-21.4-9.7-21.4-21.8c0-0.9-0.6-1.5-1.4-1.5s-1.4,0.6-1.4,1.5C5.7,68,16.6,79,30,79
		c0.9,0,1.4-0.6,1.4-1.5C31.4,76.7,30.8,76.1,30,76.1z M34.7,41.5L23.3,53.1c-0.6,0.6-0.6,1.5,0,2c0.3,0.3,0.7,0.4,1,0.4
		c0.3,0,0.7-0.1,1-0.4l11.4-11.6c0.6-0.6,0.6-1.5,0-2C36.1,41,35.3,41,34.7,41.5z M24.3,49.8c0.4,0,0.7-0.1,1-0.4l5.7-5.8
		c0.6-0.6,0.6-1.5,0-2s-1.4-0.6-2,0l-5.7,5.8c-0.6,0.6-0.6,1.5,0,2C23.6,49.7,23.9,49.8,24.3,49.8z M34.8,47.4l-5.7,5.8
		c-0.6,0.6-0.6,1.5,0,2c0.3,0.3,0.7,0.4,1,0.4s0.7-0.1,1-0.4l5.7-5.8c0.6-0.6,0.6-1.5,0-2C36.2,46.9,35.4,46.9,34.8,47.4z M30.1,21
		c0.9,0,1.4-0.6,1.4-1.5V2.1c0-0.9-0.6-1.5-1.4-1.5s-1.4,0.6-1.4,1.5v17.4C28.7,20.4,29.2,21,30.1,21z M18.5,15
		c0.9,0,1.4-0.6,1.4-1.5V7.7c0-0.9-0.6-1.5-1.4-1.5S17,6.9,17,7.7v5.8C17,14.4,17.6,15,18.5,15z M41.4,15c0.9,0,1.4-0.6,1.4-1.5V7.7
		c0-0.9-0.6-1.5-1.4-1.5c-0.9,0-1.4,0.6-1.4,1.5v5.8C40,14.4,40.6,15,41.4,15z M24.3,20.8c0.9,0,1.4-0.6,1.4-1.5V7.7
		c0-0.9-0.6-1.5-1.4-1.5c-0.9,0-1.4,0.6-1.4,1.5v11.6C22.9,20.2,23.4,20.8,24.3,20.8z M35.6,15.2c0.9,0,1.4-0.6,1.4-1.5V2.1
		c0-0.9-0.6-1.5-1.4-1.5s-1.4,0.6-1.4,1.5v11.6C34.2,14.6,34.8,15.2,35.6,15.2z"/>
</g>
</svg>
