<?xml version="1.0" encoding="utf-8"?>
<!-- Generator: Adobe Illustrator 19.2.0, SVG Export Plug-In . SVG Version: 6.00 Build 0)  -->
<?xml-stylesheet type="text/css" href="../style.css"?>
<svg version="1.1" id="Layer_1" xmlns="http://www.w3.org/2000/svg" xmlns:xlink="http://www.w3.org/1999/xlink" x="0px" y="0px"
	 viewBox="0 0 472.5 149.7" style="enable-background:new 0 0 472.5 149.7;" xml:space="preserve">
<g>
	<path class="a-leeroyLogo" d="M0,1.7h23v125.4h37.8V148H0V1.7z"/>
	<path class="a-leeroyLogo" d="M96.9,63.3h31.6v20.9H96.9v42.8h39.7V148H74V1.7h62.7v20.9H96.9V63.3z"/>
	<path class="a-leeroyLogo" d="M175.7,63.3h31.6v20.9h-31.6v42.8h39.7V148h-62.7V1.7h62.7v20.9h-39.7V63.3z"/>
	<path class="a-leeroyLogo" d="M279.6,148c-1.3-3.8-2.1-6.1-2.1-18v-23c0-13.6-4.6-18.6-15-18.6h-7.9V148h-23V1.7h34.7
		c23.8,0,34.1,11.1,34.1,33.6v11.5c0,15-4.8,24.9-15,29.7c11.5,4.8,15.3,15.9,15.3,31.1v22.6c0,7.1,0.2,12.3,2.5,17.8H279.6z
		 M254.5,22.6v44.9h9c8.6,0,13.8-3.8,13.8-15.5V37.6c0-10.4-3.6-15-11.7-15H254.5z"/>
	<path class="a-leeroyLogo" d="M315.5,36.8c0-23.4,12.3-36.8,34.9-36.8c22.6,0,34.9,13.4,34.9,36.8v76.1c0,23.4-12.3,36.8-34.9,36.8
		c-22.6,0-34.9-13.4-34.9-36.8V36.8z M338.5,114.3c0,10.5,4.6,14.4,11.9,14.4c7.3,0,11.9-4,11.9-14.4v-79c0-10.4-4.6-14.4-11.9-14.4
		c-7.3,0-11.9,4-11.9,14.4V114.3z"/>
	<path class="a-leeroyLogo" d="M420.4,99.5l-29-97.8h24L433,68.3l17.6-66.7h21.9l-29,97.8V148h-23L420.4,99.5L420.4,99.5z"/>
</g>
</svg>
